<svg width="2199" height="2500" viewBox="0 0 2199 2500" fill="none" xmlns="http://www.w3.org/2000/svg">
<g clip-path="url(#clip0)">
<path d="M1048 438H737.5V1536L335 1444.5V1801.5L1048 2028.5V438Z" fill="white" stroke="black"/>
<path d="M2031 172.5H1076.5L1085.5 2369L1859 2167.5L2031 172.5Z" fill="#FDD83C" stroke="black"/>
<path d="M204.028 2247.13L-0.0883179 0.128662L2198.88 0.986282L1996.48 2245.41L1097.68 2499.27L204.028 2247.13ZM1830.96 2124.49L2001.63 199.957H1101.11L1107.97 2322.6L1830.96 2124.49V2124.49ZM1017.06 482.118H798.368L795.795 1633.92L371.267 1518.14L372.124 1781.43L1017.06 1955.53V482.118V482.118Z" fill="#D4B830"/>
<path d="M1892 485.5H1187.5L1126 469L1139 759C1143.17 1026.5 1151.5 1565.6 1151.5 1582C1151.5 1598.4 1167.17 1860.5 1175 1989.5L1809.5 1850L1873.5 1097L1406.5 746.5L1873.5 745L1892 485.5Z" fill="white"/>
<path opacity="0.986" d="M945.023 1934.09C916.721 1925.51 776.927 1887.78 634.56 1849.19L376.413 1779.72V1650.21C376.413 1523.28 376.413 1520.71 389.277 1525C396.138 1527.57 490.478 1553.3 598.539 1583.32L794.937 1637.35L796.653 1062.74L798.368 488.122H1012.78V1218.83C1012.78 1799.44 1011.06 1949.53 1005.06 1949.53C1000.77 1948.67 973.325 1941.81 945.023 1934.09V1934.09Z" fill="white"/>
<path d="M1101.11 199.099H2001.63L1830.96 2123.63L1101.11 2321.74V199.099ZM1784.65 1801.16L1843.82 1081.6L1406.43 1130.49V746.269L1872.98 744.554L1891.85 482.118L1187.73 485.549L1197.17 1440.95L1622.55 1368.05L1616.55 1580.75L1187.73 1694.81L1192.02 1955.53L1784.65 1801.16Z" fill="#FDD83C"/>
</g>
<defs>
<clipPath id="clip0">
<rect width="2199" height="2500" fill="white"/>
</clipPath>
</defs>
</svg>
